# xmcd CD database file
# Copyright (C) 1993-1998 Ti Kan
#
# Track frame offsets:
#	150
#	4850
#	72350
#	139850
#	207350
#
# Disc length: 2888 seconds
#
# Revision: 1
# Processed by: cddbd v1.4b41PL1 Copyright (c) Steve Scherf et al.
# Submitted via: CDValet v3.31 - Copyright (c) 1997 Greg Leichner
#
DISCID=450b4605
DTITLE=Super CD Lens Cleaner - Voice Guide And Music System
DYEAR=1900
DGENRE=
TTITLE0=Open
TTITLE1=Clean
TTITLE2=Clean
TTITLE3=Clean
TTITLE4=Close
EXTD=
EXTT0=
EXTT1=
EXTT2=
EXTT3=
EXTT4=
PLAYORDER=
